Coordinates
version=1
nRows=21
nColumns=12
inDegrees=yes

Units are S.I. units (second, meters, Newtons, ...)
Angles are in degrees

endheader
time	SC_y	SC_z	SC_x	AC_y	AC_z	AC_x	GH_y	GH_z	GH_yy	EL_x	PS_y
       0.0              -48.89          27.97           0.74          48.44          4.872         -5.729         -66.16          34.59         -167.2          37.96          153.5
   0.04679              -48.88          27.97         0.7511          48.44          4.869         -5.729         -66.16          34.59         -167.2          37.95          153.5
   0.09358              -48.88          27.97          0.763          48.44          4.865         -5.729         -66.15           34.6         -167.1          37.95          153.5
    0.1404              -48.88          27.97         0.7756          48.44          4.862         -5.729         -66.15          34.61         -167.1          37.94          153.4
    0.1872              -48.87          27.97          0.789          48.44          4.858         -5.729         -66.14          34.61         -167.1          37.94          153.4
    0.2339              -48.87          27.97         0.8033          48.44          4.854         -5.728         -66.14          34.62         -167.1          37.93          153.4
    0.2807              -48.86          27.97         0.8185          48.44           4.85         -5.728         -66.13          34.63         -167.1          37.93          153.4
    0.3275              -48.85          27.97         0.8348          48.44          4.845         -5.728         -66.12          34.64         -167.1          37.92          153.4
    0.3743              -48.85          27.97         0.8523          48.45           4.84         -5.728         -66.12          34.65         -167.1          37.91          153.4
    0.4211              -48.84          27.97         0.8711          48.45          4.835         -5.728         -66.11          34.66         -167.0          37.91          153.3
    0.4679              -48.83          27.97         0.8912          48.45          4.829         -5.728          -66.1          34.67         -167.0           37.9          153.3
    0.5147              -48.83          27.98         0.9129          48.45          4.823         -5.728         -66.09          34.69         -167.0          37.89          153.3
    0.5615              -48.82          27.98         0.9362          48.45          4.816         -5.728         -66.08           34.7         -167.0          37.88          153.3
    0.6082              -48.81          27.98         0.9614          48.45          4.809         -5.728         -66.07          34.71         -166.9          37.88          153.2
     0.655               -48.8          27.98         0.9887          48.46          4.801         -5.727         -66.06          34.73         -166.9          37.87          153.2
    0.7018              -48.79          27.98          1.018          48.46          4.793         -5.727         -66.05          34.75         -166.9          37.85          153.2
    0.7486              -48.78          27.99          1.051          48.46          4.784         -5.727         -66.03          34.77         -166.9          37.84          153.2
    0.7954              -48.76          27.99          1.086          48.46          4.774         -5.727         -66.02          34.79         -166.8          37.83          153.1
    0.8422              -48.75          27.99          1.124          48.47          4.763         -5.727          -66.0          34.81         -166.8          37.82          153.1
     0.889              -48.73          27.99          1.166          48.47          4.751         -5.726         -65.98          34.83         -166.7           37.8          153.0
    0.9358              -48.72           28.0          1.212          48.47          4.738         -5.726         -65.97          34.86         -166.7          37.78          153.0
